<svg xmlns="http://www.w3.org/2000/svg" xmlns:xlink="http://www.w3.org/1999/xlink" version="1.1" viewBox="92.51 83.22 515 393.55">
  <path fill="white" d="m428.71 287.35s-40.914-22.238-82.562-69.883c-32.082-36.676-42.41-37.531-89.969-39.547-50.703-2.1523-95.312-15.812-131.3-43.559-24.266-18.711-37.121-25.367-30.75-2.8047 7.1406 25.277 59.359 69.957 59.359 69.957s-44.402-24.629-46.648-11.664c-2.2695 12.969 21.414 37.867 52.852 54.699 23.832 12.77 35.828 12.746 35.828 12.746s-24.781-2.3516-41.094-4.625c-14.156-2.0156-13.242 17.445 11.676 28.531 31.125 13.82 64.656 12.555 64.656 12.555s-9.4922 5.1953-19.023 9.8164c-9.5352 4.6016-3.0195 19.523 20.535 20.035 24.602 0.54297 31.125-1.0117 31.125-1.0117s-19.684 6.2266-16.621 18.648c2.9688 11.949 17.5 12.941 31.617 15.613 16.754 3.1406 32.387 23.391 32.387 23.391 0.007813 0-18.258 26.434-168.42 70.719 0 0 44.953 12.73 82.051 10.801 0 0-2.3359 12.965 14.234 14.934 16.57 1.9648 110.37-42.117 110.37-42.117s66.297 7.8633 115.42-18.957c49.145-26.797 76.016-75.914 103.4-84.117 27.344-8.2305 39.672-12.215 39.672-12.215s-12.086-20.629-31.969-19.523c0 0-8.9414-25.469-36.227-25.441 0 0 42.867-34.352 56.074-74.805 13.211-40.453-7.2812-90.234-28.133-116.31 0 0-9.5859 6.418-6.0273 19.02 0 0-11.727-11.336-16.379-2.1992-3.4141 6.6914 2.5195 15.875 2.5195 15.875s-10.93-11.387-16.453-5.3828c-5.1953 5.6523 2.1836 17.074 2.1836 17.074s-9.2344-5.9023-12.996 1.7695c-3.793 7.6445 3.793 19.621 3.793 19.621s-7.8047-5.125-13.281 3.6172c-5.4766 8.7344 1.8242 27.109 1.8242 27.109s-13.676-0.42969-15.895 22.52c-2.2344 23.004-26.691 60.039-67.828 85.113z"/>
</svg>