<svg width="448" height="448" xmlns="http://www.w3.org/2000/svg" version="1.1">
  <path fill="#F49F0A" id="svg_24" d="m436.24357,17.92993c9.5195,15.121 -31.922,34.16 -35.281,35.281c3.3594,-1.1211 44.801,-15.121 46.48,-11.762c6.1602,14.559 -26.32,25.199 -38.641,29.121c10.078,-2.8008 33.602,-8.3984 34.16,-5.0391c3.9219,15.68 -28.559,23.52 -31.922,24.078c1.6797,0 12.879,-0.55859 13.441,3.3594c1.1211,11.762 -16.801,19.039 -16.801,19.039s4.4805,2.2383 3.3594,5.6016c-1.1211,3.3594 -13.441,20.16 -13.441,20.16s2.2383,1.1211 0.55859,5.0391c-1.6797,3.9219 -12.879,16.238 -12.879,16.238s-8.3984,14.559 -10.641,18.48c-2.2383,3.9219 -25.762,29.68 -30.801,38.078c-5.0391,8.3984 -31.922,54.32 -30.238,59.922c2.2383,5.0391 17.359,16.801 23.52,22.961c6.1602,6.1602 40.879,25.762 48.16,32.48c12.879,12.879 -7.2812,33.602 -14,40.32c-7.2812,6.7188 -28,26.32 -40.879,13.441c-6.7188,-6.7188 -26.32,-42 -32.48,-48.16c-6.1602,-6.1602 -17.922,-21.281 -22.961,-23.52s-51.52,25.199 -59.922,30.238c-8.3984,5.0391 -34.16,28.559 -38.078,30.801c-3.9219,2.2383 -18.48,11.199 -18.48,11.199s-12.32,11.762 -16.238,12.879c-3.9219,1.6797 -5.0391,-0.55859 -5.0391,-0.55859s-16.801,12.32 -20.16,13.441c-3.3594,1.1211 -5.6016,-3.3594 -5.6016,-3.3594s-7.2812,17.922 -19.039,16.801c-3.9219,-0.55859 -3.3594,-11.762 -3.3594,-13.441c-0.55859,2.8008 -8.3984,35.281 -24.078,31.922c-2.7969,-0.56641 2.2422,-24.086 5.043,-34.164c-3.3594,12.32 -14,44.801 -29.121,38.641c-3.3594,-1.1211 10.641,-43.121 11.762,-46.48c-1.6797,3.3594 -20.719,45.359 -35.281,35.281c-2.8008,-1.6797 14,-34.16 17.359,-40.879c-3.9219,6.7188 -21.84,36.398 -33.039,25.199c-3.3594,-3.3594 24.641,-45.922 24.641,-45.922s-24.641,20.719 -26.32,14.559c-0.55859,-2.8008 35.281,-50.398 35.281,-50.398s-17.359,11.762 -17.922,8.9609c-0.55859,-2.8008 14,-19.602 21.281,-26.879c7.2812,-7.2812 51.52,-47.039 60.48,-54.879c8.9609,-7.8398 13.441,-11.762 29.121,-23.52c15.68,-11.762 44.238,-26.32 44.238,-26.32s-3.3594,-17.359 -6.1602,-21.281c-2.8008,-3.9219 -11.762,-10.078 -16.238,-17.922c-4.4805,-7.8398 -4.4805,-21.281 -4.4805,-21.281s-15.121,-20.16 -12.32,-22.961s22.961,12.32 22.961,12.32s13.441,0 21.281,4.4805c7.8398,4.4805 14,12.879 17.922,16.238c3.9219,2.8008 21.281,6.1602 21.281,6.1602s14.559,-28 26.32,-44.238c11.762,-15.68 15.68,-20.16 23.52,-29.121c7.8398,-8.9609 47.602,-53.199 54.879,-60.48c7.2812,-7.2812 23.52,-21.84 26.879,-21.281c2.8008,0.55859 -8.9609,17.922 -8.9609,17.922c-0.00391,0 47.035,-35.277 49.836,-34.719c6.1602,1.6797 -14.559,26.32 -14.559,26.32s43.121,-27.441 45.922,-24.641c11.199,11.199 -18.48,29.121 -25.199,33.039c7.2773,-3.3594 39.195,-20.16 40.875,-16.797l-0.00029,0.00239z"/>
</svg>