<svg xmlns="http://www.w3.org/2000/svg" xmlns:xlink="http://www.w3.org/1999/xlink" version="1.1" viewBox="96.13 64.42 505.86 392.33">
  <path fill="white" d="m531 210.3c-38.941-20.312-146.23-61.836-281.5 5.9961l-18.336-9.7656c0.35938-1.0234 0.67188-2.0664 0.78516-3.1758l3.8125-37.91c42.59-0.16797 71.301-25.801 71.301-25.801-38.141-38.316-67.562-19.297-83.402 0.078125-0.24219-0.011719-0.46484-0.078125-0.70703-0.078125h-16.801c8.082-55.758 79.902-48.234 79.902-48.234-82.957-22.121-98.738 26.723-101.71 48.234h-12.355c-14.102-55.777 56.543-75.227 56.543-75.227-77.184 8.7305-81.984 51.516-78.438 75.227h-0.40234c-5.957-11.395-20.238-21.984-53.559-19.848 0 0 8.1133 43.191 32.805 49.414l-20.844 63.922c-3.6055 11.059 7.125 21.41 18.047 17.398l1.1328-0.41406c-18.406 44.055 33.441 62.977 33.441 62.977-20.973-38.504-16.199-54.531-16.199-54.531 9.1094 9.1602 11.582 26.691 11.582 26.691 12.609-21.102 5.9805-35.902-2.3203-44.863l27.754-10.18 12.414 21.688c2.0781 3.625 5.2734 6.4023 9.1602 7.9297 9.3477 3.6797 29.547 11.176 60.484 20.305-3.9258 25.137-10.449 67.512-13.598 91.43-3.2383 7.6328-31.832 36.164-28.719 36.164 3.5 0 62.172 5.6406 62.172 5.6406l-28.598-37.832c6.9883-16.055 18.285-43.113 27.434-65.199l9.1094 90.668c-5.2461 12.738-20.938 29.484-18.48 29.484 3.5 0 55.172 4.5703 55.172 4.5703l-29.992-39.68 13.938-102.73c46.469 10.289 98.461 16.359 142.2 7.9023-1.3047 24.887-3.0703 59.227-3.9883 79.84-11.621 14.23-23.93 22.094-21.543 22.094 3.5 0 58.672 10.891 58.672 10.891l-29.133-38.539c5.9766-16.234 14.074-38.188 20.91-56.719l15.418 95.258s-29.109 36.473-25.602 36.473c3.5 0 58.391 6.8984 58.391 6.8984l-23.527-31.125 22.82-164.81c5.7617-7.168 10.59-15.461 14.527-24.793 20.742-5.6953 58.297-22.461 60.82-69.844 0.003906 0.003906-56.289 1.4141-70.992 44.125zm-245.98-80.836s-10.988 45.32-53.559 13.73c0 0 35.703 3.6641 53.559-13.73zm-177.16-3.2031s14.422 26.039 27.121 28.129l-5.6055 8.4961c-0.003906-0.007812-21.516-5.9531-21.516-36.625zm42.57 174.87c-39.828-20.145-15.449-46.234-15.449-46.234-2.6328 32.5 15.449 46.234 15.449 46.234zm-2.4414-117.77s-0.015626 0.003906-0.015626 0.003906c-1.0039 2.4688-3.4102 4.2227-6.2383 4.2227-3.7305 0-6.7539-3.0234-6.7539-6.7539 0-0.57031 0.19141-1.082 0.32422-1.6133-0.027344-0.042969-0.0625-0.074219-0.085938-0.11719 0 0 0.09375-0.035156 0.11719-0.042968 0.79688-2.8438 3.293-4.9766 6.3945-4.9766 3.7305 0 6.7539 3.0234 6.7539 6.7539 0 0.89062-0.19531 1.7305-0.50781 2.5156 0.003906-0.003906 0.011719 0.003907 0.011719 0.007813zm31.746 6.9102s-0.10547 0.035157-0.14453 0.042969c-0.71875 2.9609-3.2578 5.207-6.4414 5.207-3.7305 0-6.7539-3.0234-6.7539-6.7539 0-0.98047 0.23047-1.8945 0.59766-2.7344-0.003906-0.011719-0.011719-0.011719-0.015625-0.023438l0.039062-0.015624c1.0586-2.3398 3.3945-3.9805 6.125-3.9805 3.7305 0 6.7539 3.0234 6.7539 6.7539 0 0.48047-0.17969 0.90234-0.27344 1.3477 0.039062 0.066407 0.078125 0.10156 0.11328 0.15625zm-22.227-6.2695c0-0.13281 9.4766-39.43 9.4766-39.43l19.98 1.7461s-29.457 37.816-29.457 37.684zm114.46 94.008-67.602-23.117-9.1172-19.234 18.227 14.812 58.488 14.43-0.003906 13.109zm44.629 9.3164 4.7383-9.3203c91.527 14.617 138.24-2.0938 138.24-2.0938l9.1172 14.051c-70.262 20.891-150.58-2.6367-152.1-2.6367zm225.88-60.758 55.137-52.484s-4.3789 42.855-55.137 52.484z"/>
</svg>