<?xml version="1.0" standalone="no"?>
<!DOCTYPE svg PUBLIC "-//W3C//DTD SVG 20010904//EN"
 "http://www.w3.org/TR/2001/REC-SVG-20010904/DTD/svg10.dtd">
<svg version="1.0" xmlns="http://www.w3.org/2000/svg"
 width="400.000000pt" height="400.000000pt" viewBox="0 0 400.000000 400.000000"
 preserveAspectRatio="xMidYMid meet">

<g transform="translate(0.000000,400.000000) scale(0.100000,-0.100000)"
fill="#f8f1e9" stroke="none">
<path d="M1760 3985 c-373 -46 -729 -197 -1020 -432 -89 -72 -257 -243 -321
-328 -270 -353 -419 -788 -419 -1225 0 -437 149 -872 419 -1225 64 -85 232
-256 321 -328 243 -196 560 -346 860 -406 677 -135 1356 76 1835 570 162 168
266 315 365 521 329 681 245 1486 -219 2093 -64 85 -232 256 -321 328 -419
339 -971 497 -1500 432z m540 -414 c647 -127 1141 -623 1272 -1276 32 -158 32
-432 0 -590 -131 -655 -623 -1147 -1275 -1277 -162 -32 -434 -32 -594 0 -654
131 -1144 622 -1275 1276 -32 160 -32 433 0 593 101 504 420 920 877 1142 156
77 320 124 540 155 76 11 354 -3 455 -23z"/>
<path d="M1932 3219 c-45 -13 -108 -80 -121 -126 -7 -25 -11 -233 -11 -592 0
-532 1 -556 20 -595 12 -26 122 -144 302 -323 251 -249 288 -282 328 -293 159
-42 293 91 250 250 -10 40 -42 75 -256 290 l-243 245 -3 510 -3 510 -24 38
c-47 76 -151 113 -239 86z"/>
</g>
</svg>
