<svg xmlns="http://www.w3.org/2000/svg" xmlns:xlink="http://www.w3.org/1999/xlink" version="1.1" viewBox="131.61 78.41 436.8 403.19">
  <path d="m196.88 80.594c18.367 2.7461 35.93 8.2109 49.523 17.156 16.633 0.46484 36.816 5.8438 50.926 21.008 16.988-6.168 31.5-8.2891 44.449-3.6758 14.25 5.0781 25.707 15.484 41.125 28.535 52.211 11.199 90.527 22.262 112.35 49.191 11.105 13.707 16.828 31.203 17.5 52.168 0.66797 20.961-3.3203 45.652-11.898 75.973 1.2344 2.5273 3.5273 9.7578 4.8984 13.828 31.363 26.688 45.848 43.602 62.297 104.51 1.3438 4.9375-1.2031 10.652-5.7734 12.953-8.5195 4.3008-18.816 14.637-23.098 23.281-2.8047 5.707-10.988 7.9102-16.273 4.375-12.715-8.5586-32.062-9.4258-48.648-9.4531-44.059 14.227-95.555 14.305-136.15-5.4258-40.961-19.91-69.105-62.281-60.898-124.46-0.45703-2.1953-1.9102-4.1797-2.9766-6.1289-42.828-5.8242-54.445-42.785-52.676-78.949-15.301-12.016-26.012-29.469-27.648-50.941-12.566-10.207-20.188-23.18-22.051-37.988-11.711-7.0898-16.504-18.641-17.324-30.809-11.059-12.543-22.688-28.434-22.926-43.938-0.027343-5.1211 3.9102-9.9883 8.9258-11.027 19.172-3.4492 38.504-2.7969 56.348-0.17578zm-39.023 21.008c1.8438 6.0508 6.5508 11.902 10.5 16.629 6.6094-5.2266 11.434-10.41 15.051-16.457-8.9219-1.0117-17.512-0.97656-25.551-0.17578zm49 3.8516c-6.3398 14.059-16.773 24.863-29.75 34.312 2.293 5.332 6.9297 8.2344 11.551 10.68 15.727-10.891 27.102-22.402 37.973-38.336-5.6992-2.5508-12.355-4.8516-19.773-6.6523zm41.473 14.703c-14.516 22.223-30.59 38.027-52.848 52.516 2.6133 5.6289 7.8633 10.031 11.727 13.656 33.145-13.992 57.789-31.418 72.273-54.441-9.8477-6.7227-20.844-10.801-31.148-11.73zm51.797 20.832c-17.445 29.586-47.172 50.219-84 65.82 1.9062 13.645 9.0391 23.836 19.773 31.859 52.312-19.875 90.879-43.805 125.12-84.379-11.426-9.3945-19.844-15.562-26.773-18.031-11.941-3.9023-25.023 0.9375-34.125 4.7266zm80.148 25.031c-37.398 45.16-80.688 72.594-136.5 93.832 0.26172 25.215 10.629 52.18 33.426 52.516 5.168 0 8.9805 2.3047 11.551 4.5508 3.8164 6.8906 24.629 8.4023 46.723 2.4492 7.707-5.2188 16.629-11.508 26.949-15.93 13.141-5.4805 28.059-5.8242 39.375 1.5742 28.031 22.434 50.875 50.695 63.348 84.727 27.398 11.773 57.02 31.008 78.574 46.914-14.781-52.082-23.82-61.043-55.301-87.527-2.375-1.9727-3.8711-4.9688-4.0234-8.0508-3.4102-8.5781-7.1406-19.059-5.25-26.258 8.2188-29.043 11.754-51.77 11.199-69.148-0.55469-17.379-4.8086-29.07-12.602-38.688-34.824-32.984-62.125-33.332-97.473-40.965z" fill="#E3DFDA"/>
</svg>